<svg width="128" height="128" viewBox="0 0 128 128" fill="none" xmlns="http://www.w3.org/2000/svg">
  <rect width="128" height="128" rx="28" fill="#0B1222"/>
  <circle cx="64" cy="64" r="42" fill="#0F172A"/>
  <path d="M48 38C56 30 72 29 82 35C88 39 91 45 92 51H58C54 51 50.5 49.7 48 47.4C45.6 45.1 44 41.8 44 38.2C45.3 38.2 46.7 38.1 48 38Z" fill="#FEC514"/>
  <path d="M36 60C36 55 40.1 51 45.1 51H92.5C92.6 52 92.6 53 92.6 54C92.6 61.4 89.7 68.5 84.4 73.8L49.4 73.9C42 73.9 36 67.9 36 60.5V60Z" fill="#24BBB1"/>
  <path d="M50.7 74H84.3C80.8 77.4 76.6 80 72 81.5C61.8 84.7 50.4 82.6 42.1 76L38 72.7L50.7 74Z" fill="#EF5098"/>
</svg>
