<svg width="128" height="128" viewBox="0 0 128 128" fill="none" xmlns="http://www.w3.org/2000/svg">
  <rect width="128" height="128" rx="28" fill="#0B1222"/>
  <path d="M64 96.8L80.1 47.1H47.9L64 96.8Z" fill="#E24329"/>
  <path d="M64 96.8L47.9 47.1H36.6L64 96.8Z" fill="#FC6D26"/>
  <path d="M36.6 47.1L31.7 62.1C31.2 63.5 31.7 65 32.9 65.9L64 96.8L36.6 47.1Z" fill="#FCA326"/>
  <path d="M64 96.8L91.4 47.1H80.1L64 96.8Z" fill="#FC6D26"/>
  <path d="M91.4 47.1L96.3 62.1C96.8 63.5 96.3 65 95.1 65.9L64 96.8L91.4 47.1Z" fill="#FCA326"/>
  <path d="M80.1 47.1H47.9L54.5 26.8C54.8 25.8 55.7 25.1 56.8 25.1C57.8 25.1 58.7 25.8 59.1 26.8L64 42L68.9 26.8C69.3 25.8 70.2 25.1 71.2 25.1C72.3 25.1 73.2 25.8 73.5 26.8L80.1 47.1Z" fill="#E24329"/>
</svg>
